<?xml version="1.0" encoding="utf-8"?><!-- Uploaded to: SVG Repo, www.svgrepo.com, Generator: SVG Repo Mixer Tools -->
<svg width="800px" height="800px" viewBox="0 0 24 24" xmlns="http://www.w3.org/2000/svg" id="cross-arrow" class="icon glyph"><path d="M21.92,11.62a1.15,1.15,0,0,0-.21-.33h0l-3-3a1,1,0,0,0-1.42,1.42L18.59,11H13V5.41l1.29,1.3a1,1,0,0,0,1.42,0,1,1,0,0,0,0-1.42l-3-3h0a1.15,1.15,0,0,0-.33-.21.94.94,0,0,0-.76,0,1.15,1.15,0,0,0-.33.21h0l-3,3A1,1,0,0,0,9.71,6.71L11,5.41V11H5.41l1.3-1.29A1,1,0,0,0,5.29,8.29l-3,3h0a1.15,1.15,0,0,0-.21.33.94.94,0,0,0,0,.76,1.15,1.15,0,0,0,.21.33h0l3,3a1,1,0,0,0,1.42,0,1,1,0,0,0,0-1.42L5.41,13H11v5.59l-1.29-1.3a1,1,0,0,0-1.42,1.42l3,3h0a1.15,1.15,0,0,0,.33.21.94.94,0,0,0,.76,0,1.15,1.15,0,0,0,.33-.21h0l3-3a1,1,0,0,0-1.42-1.42L13,18.59V13h5.59l-1.3,1.29a1,1,0,0,0,0,1.42,1,1,0,0,0,1.42,0l3-3h0a1.15,1.15,0,0,0,.21-.33.94.94,0,0,0,0-.76Z" style="fill:#231f20"></path></svg>